<svg width="512" height="512" viewBox="0 0 512 512" fill="none" xmlns="http://www.w3.org/2000/svg">
<path d="M188.287 169.428C159.643 169.352 127.379 171.656 89.83 177.438C85.398 178.058 42.698 202.415 31.186 219.226C19.674 236.038 15.736 268.039 15.736 268.039C12.628 281.144 14.516 302.805 15.383 304.911C16.553 309.471 23.163 313.298 34.516 316.065C35.84 295.008 53.29 278.6 74.39 278.574C96.482 278.574 114.39 296.484 114.39 318.574C114.376 320.338 114.245 322.099 113.998 323.846C114.588 323.854 115.258 323.87 115.818 323.876L355.084 325.866C354.631 323.462 354.399 321.021 354.391 318.574C354.391 296.484 372.301 278.574 394.391 278.574C416.483 278.574 434.391 296.484 434.391 318.574C434.391 321.242 434.125 323.904 433.595 326.518L495.781 327.035C497.099 304.223 502.641 280.265 488.757 260.315C483.301 252.475 456.827 238.277 389.727 227.655C355.059 210.245 321.224 190.505 284.377 179.193C255.967 173.558 225.117 169.525 188.287 169.428ZM171.09 181.412C177.088 181.456 182.59 181.702 187.104 182.222L194.391 230.574C152.961 225.481 110.744 220.911 88.427 203.074C88.777 197.574 96.387 189.612 104.933 186.568C109.773 184.844 145.1 181.222 171.091 181.412H171.09ZM205.715 181.76C230.727 182.024 267.747 184.45 293.217 195.7C305.419 201.35 328.391 214.574 343.754 226.25L337.404 236.785C295.698 234.905 240.116 232.582 217.304 230.005L205.715 181.76ZM74.39 294.574C68.0248 294.574 61.9203 297.103 57.4194 301.603C52.9186 306.104 50.39 312.209 50.39 318.574C50.39 324.939 52.9186 331.044 57.4194 335.545C61.9203 340.045 68.0248 342.574 74.39 342.574C80.7552 342.574 86.8597 340.045 91.3606 335.545C95.8614 331.044 98.39 324.939 98.39 318.574C98.39 312.209 95.8614 306.104 91.3606 301.603C86.8597 297.103 80.7552 294.574 74.39 294.574ZM394.39 294.574C388.025 294.574 381.92 297.103 377.419 301.603C372.919 306.104 370.39 312.209 370.39 318.574C370.39 324.939 372.919 331.044 377.419 335.545C381.92 340.045 388.025 342.574 394.39 342.574C400.755 342.574 406.86 340.045 411.361 335.545C415.861 331.044 418.39 324.939 418.39 318.574C418.39 312.209 415.861 306.104 411.361 301.603C406.86 297.103 400.755 294.574 394.39 294.574Z" fill="#888888"/>
</svg>
