<svg width="21" height="19" viewBox="0 0 21 19" fill="none" xmlns="http://www.w3.org/2000/svg">
<path d="M18 14.57C18.4954 13.7582 18.7078 12.805 18.6037 11.8596C18.4997 10.9142 18.0851 10.03 17.425 9.34537C16.7649 8.66071 15.8964 8.21423 14.9554 8.07579C14.0145 7.93736 13.0542 8.11479 12.2248 8.58032C11.3954 9.04584 10.7438 9.77319 10.3719 10.6485C10 11.5239 9.9288 12.4978 10.1694 13.418C10.4101 14.3381 10.949 15.1525 11.7018 15.7337C12.4546 16.3149 13.3789 16.6301 14.33 16.63C15.1199 16.6263 15.894 16.4086 16.57 16L18.29 17.73C18.383 17.8237 18.4936 17.8981 18.6154 17.9489C18.7373 17.9997 18.868 18.0258 19 18.0258C19.132 18.0258 19.2627 17.9997 19.3846 17.9489C19.5064 17.8981 19.617 17.8237 19.71 17.73C19.8037 17.637 19.8781 17.5264 19.9289 17.4046C19.9797 17.2827 20.0058 17.152 20.0058 17.02C20.0058 16.888 19.9797 16.7573 19.9289 16.6354C19.8781 16.5136 19.8037 16.403 19.71 16.31L18 14.57ZM16 14C15.5593 14.42 14.9738 14.6543 14.365 14.6543C13.7562 14.6543 13.1707 14.42 12.73 14C12.2983 13.5654 12.056 12.9776 12.056 12.365C12.056 11.7524 12.2983 11.1646 12.73 10.73C12.9446 10.515 13.1994 10.3445 13.48 10.2281C13.7605 10.1117 14.0613 10.0518 14.365 10.0518C14.6687 10.0518 14.9695 10.1117 15.25 10.2281C15.5306 10.3445 15.7854 10.515 16 10.73C16.4317 11.1646 16.674 11.7524 16.674 12.365C16.674 12.9776 16.4317 13.5654 16 14ZM17 0H3C2.20435 0 1.44129 0.316071 0.87868 0.87868C0.316071 1.44129 0 2.20435 0 3V12C0 12.7956 0.316071 13.5587 0.87868 14.1213C1.44129 14.6839 2.20435 15 3 15H7C7.26522 15 7.51957 14.8946 7.70711 14.7071C7.89464 14.5196 8 14.2652 8 14C8 13.7348 7.89464 13.4804 7.70711 13.2929C7.51957 13.1054 7.26522 13 7 13H3C2.73478 13 2.48043 12.8946 2.29289 12.7071C2.10536 12.5196 2 12.2652 2 12V6H18V7C18 7.26522 18.1054 7.51957 18.2929 7.70711C18.4804 7.89464 18.7348 8 19 8C19.2652 8 19.5196 7.89464 19.7071 7.70711C19.8946 7.51957 20 7.26522 20 7V3C20 2.20435 19.6839 1.44129 19.1213 0.87868C18.5587 0.316071 17.7956 0 17 0ZM18 4H2V3C2 2.73478 2.10536 2.48043 2.29289 2.29289C2.48043 2.10536 2.73478 2 3 2H17C17.2652 2 17.5196 2.10536 17.7071 2.29289C17.8946 2.48043 18 2.73478 18 3V4ZM8 8H5C4.73478 8 4.48043 8.10536 4.29289 8.29289C4.10536 8.48043 4 8.73478 4 9C4 9.26522 4.10536 9.51957 4.29289 9.70711C4.48043 9.89464 4.73478 10 5 10H8C8.26522 10 8.51957 9.89464 8.70711 9.70711C8.89464 9.51957 9 9.26522 9 9C9 8.73478 8.89464 8.48043 8.70711 8.29289C8.51957 8.10536 8.26522 8 8 8Z" fill="#888888"/>
</svg>
